<svg width="64" height="64" viewBox="0 0 64 64" fill="none" xmlns="http://www.w3.org/2000/svg">
<path d="M26.1992 51.2336H20.7011V22.9961H29.2835L34.4176 45.1992L39.5134 22.9961H48V51.2336H42.5019V32.134C42.5019 31.5849 42.5083 30.8186 42.5211 29.8352C42.5338 28.839 42.5402 28.0727 42.5402 27.5363L37.1954 51.2336H31.4674L26.1609 27.5363C26.1609 28.0727 26.1673 28.839 26.1801 29.8352C26.1928 30.8186 26.1992 31.5849 26.1992 32.134V51.2336Z" fill="#2E231C"/>
<path d="M12.1648 27.9651C11.3367 27.9591 10.529 27.7082 9.84326 27.244C9.15754 26.7798 8.62455 26.123 8.31144 25.3564C7.99833 24.5898 7.91911 23.7477 8.08376 22.9361C8.2484 22.1246 8.64955 21.3799 9.23666 20.796C9.82377 20.212 10.5706 19.8149 11.383 19.6546C12.1954 19.4943 13.0371 19.578 13.802 19.8953C14.5669 20.2125 15.2208 20.749 15.6814 21.4372C16.1419 22.1254 16.3885 22.9345 16.39 23.7626C16.392 24.3169 16.2839 24.8662 16.072 25.3784C15.8601 25.8907 15.5486 26.3558 15.1556 26.7467C14.7625 27.1377 14.2958 27.4467 13.7824 27.6558C13.269 27.865 12.7191 27.9701 12.1648 27.9651ZM37.3574 18.6697H20.5171V12H37.4328L37.3574 18.6697Z" fill="#BAA27F"/>
</svg>
