<svg width="348" height="37" viewBox="0 0 348 37" fill="none" xmlns="http://www.w3.org/2000/svg">
<path d="M23.4669 30.625H19.0643V8.01359H25.9367L30.0479 25.7928L34.1283 8.01359H40.924V30.625H36.5214V15.3309C36.5214 14.8911 36.5265 14.2775 36.5367 13.49C36.547 12.6923 36.5521 12.0787 36.5521 11.6492L32.2722 30.625H27.6855L23.4362 11.6492C23.4362 12.0787 23.4414 12.6923 23.4516 13.49C23.4618 14.2775 23.4669 14.8911 23.4669 15.3309V30.625ZM58.9027 16.0212C60.314 17.7904 61.0197 19.8818 61.0197 22.2953C61.0197 24.7497 60.314 26.8513 58.9027 28.6001C57.4914 30.3387 55.3489 31.2079 52.4752 31.2079C49.6015 31.2079 47.4589 30.3387 46.0476 28.6001C44.6364 26.8513 43.9307 24.7497 43.9307 22.2953C43.9307 19.8818 44.6364 17.7904 46.0476 16.0212C47.4589 14.2519 49.6015 13.3673 52.4752 13.3673C55.3489 13.3673 57.4914 14.2519 58.9027 16.0212ZM52.4598 17.0643C51.1815 17.0643 50.1946 17.5194 49.4992 18.4296C48.814 19.3295 48.4714 20.6181 48.4714 22.2953C48.4714 23.9725 48.814 25.2662 49.4992 26.1764C50.1946 27.0865 51.1815 27.5416 52.4598 27.5416C53.7382 27.5416 54.72 27.0865 55.4052 26.1764C56.0903 25.2662 56.4329 23.9725 56.4329 22.2953C56.4329 20.6181 56.0903 19.3295 55.4052 18.4296C54.72 17.5194 53.7382 17.0643 52.4598 17.0643ZM72.5708 17.9387C70.8118 17.9387 69.6306 18.5114 69.0272 19.6568C68.6897 20.3011 68.521 21.2931 68.521 22.6328V30.625H64.1184V13.9042H68.2909V16.8188C68.9659 15.7041 69.5539 14.9422 70.055 14.5332C70.8732 13.848 71.9367 13.5054 73.2458 13.5054C73.3276 13.5054 73.3941 13.5105 73.4452 13.5207C73.5066 13.5207 73.6344 13.5258 73.8287 13.5361V18.0154C73.5526 17.9847 73.3071 17.9642 73.0924 17.954C72.8776 17.9438 72.7037 17.9387 72.5708 17.9387ZM87.9263 14.6712C89.2353 15.5098 89.987 16.9518 90.1813 18.9972H85.8094C85.748 18.4347 85.5895 17.9898 85.3338 17.6626C84.8532 17.0694 84.035 16.7728 82.8794 16.7728C81.9283 16.7728 81.2482 16.9211 80.8392 17.2177C80.4403 17.5143 80.2409 17.862 80.2409 18.2608C80.2409 18.7619 80.4556 19.125 80.8852 19.35C81.3147 19.5852 82.8334 19.9891 85.4412 20.5618C87.1798 20.9709 88.4837 21.5896 89.3529 22.418C90.212 23.2566 90.6415 24.3049 90.6415 25.5627C90.6415 27.2195 90.0228 28.5745 88.7854 29.6279C87.5581 30.671 85.656 31.1926 83.0788 31.1926C80.4505 31.1926 78.5074 30.6403 77.2496 29.5358C76.0019 28.4211 75.3781 27.0047 75.3781 25.2866H79.8114C79.9034 26.0639 80.1028 26.6161 80.4096 26.9434C80.9516 27.5263 81.9539 27.8177 83.4163 27.8177C84.2754 27.8177 84.9554 27.6899 85.4565 27.4342C85.9679 27.1786 86.2236 26.7951 86.2236 26.2837C86.2236 25.7928 86.019 25.4196 85.6099 25.1639C85.2009 24.9082 83.6822 24.4685 81.0539 23.8446C79.162 23.3742 77.8274 22.7862 77.0501 22.0805C76.2729 21.3851 75.8843 20.3829 75.8843 19.0739C75.8843 17.5296 76.4877 16.2052 77.6944 15.1007C78.9114 13.986 80.6193 13.4287 82.818 13.4287C84.9043 13.4287 86.6071 13.8429 87.9263 14.6712ZM108.206 25.7161C108.094 26.7081 107.577 27.7155 106.657 28.7382C105.225 30.3642 103.22 31.1772 100.643 31.1772C98.5161 31.1772 96.6395 30.4921 95.0135 29.1217C93.3874 27.7513 92.5744 25.5218 92.5744 22.4333C92.5744 19.5392 93.3056 17.32 94.768 15.7757C96.2407 14.2315 98.148 13.4593 100.49 13.4593C101.881 13.4593 103.134 13.7201 104.248 14.2417C105.363 14.7633 106.283 15.5865 107.009 16.7115C107.664 17.7035 108.088 18.854 108.283 20.163C108.395 20.93 108.441 22.0345 108.421 23.4765H96.977C97.0384 25.1537 97.5651 26.3298 98.557 27.0047C99.1604 27.424 99.8865 27.6337 100.735 27.6337C101.635 27.6337 102.367 27.378 102.929 26.8667C103.236 26.5905 103.507 26.207 103.742 25.7161H108.206ZM103.88 20.5925C103.808 19.4369 103.456 18.5625 102.822 17.9694C102.198 17.366 101.421 17.0643 100.49 17.0643C99.4775 17.0643 98.69 17.3813 98.1275 18.0154C97.5753 18.6494 97.2276 19.5085 97.0844 20.5925H103.88ZM136.432 28.9376C134.745 30.4818 132.587 31.2539 129.958 31.2539C126.706 31.2539 124.15 30.2108 122.288 28.1246C120.427 26.0281 119.496 23.1543 119.496 19.5034C119.496 15.5558 120.555 12.5134 122.672 10.376C124.513 8.5147 126.855 7.58406 129.698 7.58406C133.502 7.58406 136.284 8.83173 138.043 11.3271C139.014 12.7281 139.536 14.1343 139.607 15.5456H134.883C134.576 14.4616 134.182 13.6434 133.701 13.0912C132.842 12.1094 131.569 11.6185 129.882 11.6185C128.164 11.6185 126.809 12.314 125.817 13.7048C124.825 15.0854 124.329 17.0438 124.329 19.5801C124.329 22.1163 124.85 24.0185 125.893 25.2866C126.947 26.5445 128.281 27.1735 129.897 27.1735C131.554 27.1735 132.817 26.6314 133.686 25.5474C134.167 24.9645 134.566 24.0901 134.883 22.9242H139.561C139.152 25.3889 138.109 27.3933 136.432 28.9376ZM156.773 16.0212C158.184 17.7904 158.89 19.8818 158.89 22.2953C158.89 24.7497 158.184 26.8513 156.773 28.6001C155.362 30.3387 153.219 31.2079 150.345 31.2079C147.472 31.2079 145.329 30.3387 143.918 28.6001C142.507 26.8513 141.801 24.7497 141.801 22.2953C141.801 19.8818 142.507 17.7904 143.918 16.0212C145.329 14.2519 147.472 13.3673 150.345 13.3673C153.219 13.3673 155.362 14.2519 156.773 16.0212ZM150.33 17.0643C149.052 17.0643 148.065 17.5194 147.369 18.4296C146.684 19.3295 146.342 20.6181 146.342 22.2953C146.342 23.9725 146.684 25.2662 147.369 26.1764C148.065 27.0865 149.052 27.5416 150.33 27.5416C151.608 27.5416 152.59 27.0865 153.275 26.1764C153.961 25.2662 154.303 23.9725 154.303 22.2953C154.303 20.6181 153.961 19.3295 153.275 18.4296C152.59 17.5194 151.608 17.0643 150.33 17.0643ZM177.252 8.04427V30.625H173.003V28.3086C172.379 29.3006 171.668 30.0216 170.871 30.4716C170.073 30.9216 169.081 31.1466 167.895 31.1466C165.941 31.1466 164.295 30.3591 162.955 28.7842C161.626 27.199 160.961 25.169 160.961 22.6941C160.961 19.8409 161.615 17.5961 162.924 15.9598C164.244 14.3235 166.003 13.5054 168.201 13.5054C169.214 13.5054 170.114 13.7304 170.901 14.1803C171.689 14.6201 172.328 15.2337 172.819 16.0212V8.04427H177.252ZM165.471 22.372C165.471 23.9162 165.778 25.1486 166.391 26.069C166.995 26.9996 167.915 27.4649 169.153 27.4649C170.39 27.4649 171.331 27.0047 171.975 26.0843C172.619 25.1639 172.942 23.9725 172.942 22.5101C172.942 20.4647 172.425 19.0023 171.392 18.1228C170.758 17.591 170.022 17.3251 169.183 17.3251C167.905 17.3251 166.964 17.8108 166.361 18.7824C165.767 19.7437 165.471 20.9402 165.471 22.372ZM195.553 25.7161C195.44 26.7081 194.924 27.7155 194.004 28.7382C192.572 30.3642 190.567 31.1772 187.99 31.1772C185.863 31.1772 183.986 30.4921 182.36 29.1217C180.734 27.7513 179.921 25.5218 179.921 22.4333C179.921 19.5392 180.653 17.32 182.115 15.7757C183.588 14.2315 185.495 13.4593 187.837 13.4593C189.228 13.4593 190.48 13.7201 191.595 14.2417C192.71 14.7633 193.63 15.5865 194.356 16.7115C195.011 17.7035 195.435 18.854 195.63 20.163C195.742 20.93 195.788 22.0345 195.768 23.4765H184.324C184.385 25.1537 184.912 26.3298 185.904 27.0047C186.507 27.424 187.233 27.6337 188.082 27.6337C188.982 27.6337 189.713 27.378 190.276 26.8667C190.583 26.5905 190.854 26.207 191.089 25.7161H195.553ZM191.227 20.5925C191.155 19.4369 190.803 18.5625 190.169 17.9694C189.545 17.366 188.767 17.0643 187.837 17.0643C186.824 17.0643 186.037 17.3813 185.474 18.0154C184.922 18.6494 184.574 19.5085 184.431 20.5925H191.227ZM217.566 30.625H207.825V8.01359H217.566C218.967 8.03404 220.133 8.19767 221.064 8.50448C222.649 9.02604 223.932 9.98224 224.914 11.3731C225.701 12.498 226.238 13.715 226.525 15.024C226.811 16.3331 226.954 17.5807 226.954 18.767C226.954 21.7737 226.351 24.3202 225.144 26.4065C223.508 29.2188 220.982 30.625 217.566 30.625ZM221.079 13.7815C220.353 12.5543 218.916 11.9407 216.768 11.9407H212.412V26.6979H216.768C218.998 26.6979 220.552 25.5985 221.432 23.3998C221.912 22.193 222.153 20.7562 222.153 19.0892C222.153 16.7882 221.795 15.0189 221.079 13.7815ZM244.488 25.7161C244.376 26.7081 243.859 27.7155 242.939 28.7382C241.507 30.3642 239.503 31.1772 236.925 31.1772C234.798 31.1772 232.922 30.4921 231.296 29.1217C229.669 27.7513 228.856 25.5218 228.856 22.4333C228.856 19.5392 229.588 17.32 231.05 15.7757C232.523 14.2315 234.43 13.4593 236.772 13.4593C238.163 13.4593 239.416 13.7201 240.53 14.2417C241.645 14.7633 242.565 15.5865 243.292 16.7115C243.946 17.7035 244.37 18.854 244.565 20.163C244.677 20.93 244.723 22.0345 244.703 23.4765H233.259C233.32 25.1537 233.847 26.3298 234.839 27.0047C235.443 27.424 236.169 27.6337 237.017 27.6337C237.917 27.6337 238.649 27.378 239.211 26.8667C239.518 26.5905 239.789 26.207 240.024 25.7161H244.488ZM240.162 20.5925C240.091 19.4369 239.738 18.5625 239.104 17.9694C238.48 17.366 237.703 17.0643 236.772 17.0643C235.76 17.0643 234.972 17.3813 234.41 18.0154C233.857 18.6494 233.51 19.5085 233.366 20.5925H240.162ZM262.129 19.9022H257.65C257.568 19.2784 257.358 18.7159 257.021 18.2148C256.53 17.5398 255.768 17.2024 254.735 17.2024C253.263 17.2024 252.255 17.9336 251.713 19.396C251.427 20.1732 251.284 21.2061 251.284 22.4947C251.284 23.7219 251.427 24.7088 251.713 25.4554C252.235 26.8462 253.217 27.5416 254.659 27.5416C255.681 27.5416 256.407 27.2655 256.837 26.7133C257.266 26.161 257.527 25.4451 257.619 24.5656H262.083C261.981 25.8951 261.5 27.153 260.641 28.3393C259.271 30.2517 257.241 31.2079 254.551 31.2079C251.862 31.2079 249.883 30.4102 248.615 28.8149C247.346 27.2195 246.712 25.1486 246.712 22.6021C246.712 19.7284 247.413 17.4938 248.814 15.8984C250.215 14.3031 252.148 13.5054 254.613 13.5054C256.709 13.5054 258.422 13.9758 259.752 14.9167C261.091 15.8575 261.884 17.5194 262.129 19.9022ZM279.096 16.0212C280.507 17.7904 281.212 19.8818 281.212 22.2953C281.212 24.7497 280.507 26.8513 279.096 28.6001C277.684 30.3387 275.542 31.2079 272.668 31.2079C269.794 31.2079 267.652 30.3387 266.24 28.6001C264.829 26.8513 264.124 24.7497 264.124 22.2953C264.124 19.8818 264.829 17.7904 266.24 16.0212C267.652 14.2519 269.794 13.3673 272.668 13.3673C275.542 13.3673 277.684 14.2519 279.096 16.0212ZM272.653 17.0643C271.374 17.0643 270.387 17.5194 269.692 18.4296C269.007 19.3295 268.664 20.6181 268.664 22.2953C268.664 23.9725 269.007 25.2662 269.692 26.1764C270.387 27.0865 271.374 27.5416 272.653 27.5416C273.931 27.5416 274.913 27.0865 275.598 26.1764C276.283 25.2662 276.626 23.9725 276.626 22.2953C276.626 20.6181 276.283 19.3295 275.598 18.4296C274.913 17.5194 273.931 17.0643 272.653 17.0643ZM299.575 8.04427V30.625H295.325V28.3086C294.702 29.3006 293.991 30.0216 293.193 30.4716C292.395 30.9216 291.403 31.1466 290.217 31.1466C288.264 31.1466 286.617 30.3591 285.278 28.7842C283.948 27.199 283.283 25.169 283.283 22.6941C283.283 19.8409 283.938 17.5961 285.247 15.9598C286.566 14.3235 288.325 13.5054 290.524 13.5054C291.536 13.5054 292.436 13.7304 293.224 14.1803C294.011 14.6201 294.65 15.2337 295.141 16.0212V8.04427H299.575ZM287.793 22.372C287.793 23.9162 288.1 25.1486 288.714 26.069C289.317 26.9996 290.238 27.4649 291.475 27.4649C292.712 27.4649 293.653 27.0047 294.298 26.0843C294.942 25.1639 295.264 23.9725 295.264 22.5101C295.264 20.4647 294.748 19.0023 293.715 18.1228C293.081 17.591 292.344 17.3251 291.506 17.3251C290.227 17.3251 289.287 17.8108 288.683 18.7824C288.09 19.7437 287.793 20.9402 287.793 22.372ZM317.875 25.7161C317.763 26.7081 317.247 27.7155 316.326 28.7382C314.894 30.3642 312.89 31.1772 310.313 31.1772C308.186 31.1772 306.309 30.4921 304.683 29.1217C303.057 27.7513 302.244 25.5218 302.244 22.4333C302.244 19.5392 302.975 17.32 304.437 15.7757C305.91 14.2315 307.817 13.4593 310.159 13.4593C311.55 13.4593 312.803 13.7201 313.918 14.2417C315.032 14.7633 315.953 15.5865 316.679 16.7115C317.333 17.7035 317.758 18.854 317.952 20.163C318.065 20.93 318.111 22.0345 318.09 23.4765H306.646C306.708 25.1537 307.234 26.3298 308.226 27.0047C308.83 27.424 309.556 27.6337 310.405 27.6337C311.305 27.6337 312.036 27.378 312.598 26.8667C312.905 26.5905 313.176 26.207 313.411 25.7161H317.875ZM313.55 20.5925C313.478 19.4369 313.125 18.5625 312.491 17.9694C311.867 17.366 311.09 17.0643 310.159 17.0643C309.147 17.0643 308.359 17.3813 307.797 18.0154C307.245 18.6494 306.897 19.5085 306.754 20.5925H313.55ZM329.457 17.9387C327.698 17.9387 326.517 18.5114 325.914 19.6568C325.576 20.3011 325.407 21.2931 325.407 22.6328V30.625H321.005V13.9042H325.177V16.8188C325.852 15.7041 326.44 14.9422 326.941 14.5332C327.76 13.848 328.823 13.5054 330.132 13.5054C330.214 13.5054 330.281 13.5105 330.332 13.5207C330.393 13.5207 330.521 13.5258 330.715 13.5361V18.0154C330.439 17.9847 330.194 17.9642 329.979 17.954C329.764 17.9438 329.59 17.9387 329.457 17.9387Z" fill="#2E231C"/>
<path d="M12.3975 12.7842C11.7344 12.7794 11.0876 12.5785 10.5385 12.2068C9.98941 11.835 9.56261 11.3091 9.31189 10.6952C9.06117 10.0814 8.99773 9.40704 9.12957 8.75719C9.26141 8.10734 9.58263 7.51104 10.0528 7.04343C10.5229 6.57581 11.1209 6.2578 11.7715 6.12945C12.422 6.0011 13.096 6.06816 13.7085 6.32218C14.321 6.57619 14.8446 7.00581 15.2134 7.55689C15.5822 8.10797 15.7796 8.75587 15.7808 9.41896C15.7824 9.86287 15.6959 10.3027 15.5262 10.7129C15.3565 11.1231 15.1071 11.4955 14.7924 11.8086C14.4776 12.1216 14.1039 12.369 13.6928 12.5365C13.2817 12.704 12.8414 12.7882 12.3975 12.7842ZM32.5706 5.34083H19.0856V0H32.631L32.5706 5.34083Z" fill="#BAA27F"/>
</svg>
